<svg width="14" height="14" viewBox="0 0 14 14" fill="none" xmlns="http://www.w3.org/2000/svg">
<path fill-rule="evenodd" clip-rule="evenodd" d="M12.7782 11.364C13.1687 11.7545 13.1687 12.3877 12.7782 12.7782C12.3877 13.1687 11.7545 13.1687 11.364 12.7782L6.53553 7.94975L1.70711 12.7782C1.31658 13.1687 0.683418 13.1687 0.292893 12.7782C-0.0976311 12.3877 -0.0976311 11.7545 0.292893 11.364L5.12132 6.53553L0.292893 1.70711C-0.0976311 1.31658 -0.0976311 0.683417 0.292893 0.292893C0.683417 -0.0976311 1.31658 -0.0976311 1.70711 0.292893L6.53553 5.12132L11.364 0.292893C11.7545 -0.0976311 12.3877 -0.0976311 12.7782 0.292893C13.1687 0.683418 13.1687 1.31658 12.7782 1.70711L7.94975 6.53553L12.7782 11.364Z"/>
</svg>
