<svg width="18" height="14" viewBox="0 0 18 14" fill="none" xmlns="http://www.w3.org/2000/svg">
<path fill-rule="evenodd" clip-rule="evenodd" d="M0 1C0 0.447715 0.447715 0 1 0H17C17.5523 0 18 0.447715 18 1C18 1.55228 17.5523 2 17 2H1C0.447716 2 0 1.55228 0 1ZM3 7C3 6.44772 3.44772 6 4 6H14C14.5523 6 15 6.44772 15 7C15 7.55228 14.5523 8 14 8H4C3.44772 8 3 7.55228 3 7ZM7 12C6.44772 12 6 12.4477 6 13C6 13.5523 6.44772 14 7 14H11C11.5523 14 12 13.5523 12 13C12 12.4477 11.5523 12 11 12H7Z" fill="#A0AEC0"/>
</svg>
